<svg width="492" height="410" viewBox="0 0 492 410" fill="none" xmlns="http://www.w3.org/2000/svg">
<path d="M464.344 166.418L465.112 166.586H135.888L239.384 62.862C244.452 57.798 247.232 50.938 247.232 43.738C247.232 36.538 244.452 29.726 239.384 24.65L223.28 8.53801C218.216 3.47401 211.468 0.674011 204.272 0.674011C197.072 0.674011 190.32 3.45401 185.256 8.51801L7.84399 185.914C2.75998 190.998 -0.0200149 197.77 -1.49048e-05 204.974C-0.0200149 212.218 2.75998 218.994 7.84399 224.07L185.256 401.482C190.32 406.542 197.068 409.326 204.272 409.326C211.468 409.326 218.216 406.538 223.28 401.482L239.384 385.37C244.452 380.314 247.232 373.562 247.232 366.362C247.232 359.166 244.452 352.77 239.384 347.71L134.72 243.406H464.712C479.54 243.406 492 230.626 492 215.806V193.018C492 178.198 479.172 166.418 464.344 166.418Z" fill="white"/>
</svg>
