<?xml version="1.0" encoding="iso-8859-1"?>
<!-- Generator: Adobe Illustrator 19.0.0, SVG Export Plug-In . SVG Version: 6.00 Build 0)  -->
<svg version="1.1" id="Capa_1" xmlns="http://www.w3.org/2000/svg" xmlns:xlink="http://www.w3.org/1999/xlink" x="0px" y="0px"
	 viewBox="0 0 325.4 325.4" style="enable-background:new 0 0 325.4 325.4;" xml:space="preserve">
<g>
	<g>
		<g>
			<path d="M107.1,43.2c0-12-10-22-22-22s-22,9.6-22,22c0,12,10,22,22,22S107.1,55.2,107.1,43.2z M73.5,43.2
				c0-6.4,5.2-11.6,11.6-11.6s11.6,5.2,11.6,11.6c0,6.4-5.2,11.6-11.6,11.6C78.7,54.8,73.5,49.6,73.5,43.2z"/>
			<path d="M297.5,96l-86.8-50.4h-0.4h-0.4c-0.4,0-0.8-0.4-0.8-0.4h-0.4h-0.4c-0.4,0-0.8,0-1.2,0c0,0,0,0-0.4,0h-0.4h-0.4
				l-83.2,47.2l-12-6.4c8.8-14.8,17.2-31.6,17.2-42.8C127.9,19.6,108.7,0,84.7,0S41.5,19.2,41.5,43.2c0,2.4,0.4,4.8,0.8,7.2
				l-9.6-5.2c-1.6-0.8-3.6-0.8-5.2,0s-2.4,2.8-2.4,4.4v225.2c0.4,2.4,1.6,4,3.2,4.8l92.4,44.8h0.4c0.4,0.4,1.2,0.4,1.6,0.4h0.4
				c0.4,0,0.8,0,0.8,0h0.4h0.4h0.4l82.8-46.4l84.8,46.4c1.6,0.8,3.6,0.8,5.2,0c1.6-0.8,2.4-2.8,2.4-4.4v-220
				C300.3,98.4,299.1,96.8,297.5,96z M85.1,10.4c18,0,32.8,14.8,32.8,32.8c0,15.2-20.8,46.8-32.8,63.2c-12-16-32.8-47.2-32.8-63.2
				C52.3,24.8,66.7,10.4,85.1,10.4z M117.9,311.2l-82-39.6v-108l82,41.2V311.2z M117.9,193.2l-82-41.2V58.4l11.6,6
				c10,23.2,30.4,49.6,33.6,53.6l4,5.2l4-5.2c1.6-2,8.8-11.2,16.4-23.2l12.4,6.4V193.2z M128.3,101.2l66.4-37.6L128.3,182V101.2z
				 M128.3,203.2l28.4-50.4l44.8,31.2l-73.2,117.6V203.2z M203.1,269.2l-65.2,36.4l65.2-105.2V269.2z M203.1,172l-41.6-28.4l41.6-74
				V172z M290.3,311.2l-76.8-42V192l76.8,53.6V311.2z M290.3,232.8l-76.8-53.2V58.8l76.8,43.6V232.8z"/>
		</g>
	</g>
</g>
<g>
</g>
<g>
</g>
<g>
</g>
<g>
</g>
<g>
</g>
<g>
</g>
<g>
</g>
<g>
</g>
<g>
</g>
<g>
</g>
<g>
</g>
<g>
</g>
<g>
</g>
<g>
</g>
<g>
</g>
</svg>
