<svg width="33" height="33" viewBox="0 0 33 33" fill="none" xmlns="http://www.w3.org/2000/svg">
<path d="M28.189 16.504H26.523C26.523 11.067 22.101 6.646 16.667 6.646L16.666 4.982C23.021 4.979 28.189 10.149 28.189 16.504ZM16.666 7.856L16.665 9.52C20.518 9.52 23.648 12.653 23.646 16.503L25.312 16.502C25.312 11.735 21.436 7.856 16.666 7.856ZM16.333 0C7.326 0 0 7.326 0 16.334C0 25.34 7.326 32.666 16.333 32.666C16.89 32.666 17.34 32.216 17.34 31.66C17.34 31.101 16.89 30.65 16.333 30.65C8.437 30.65 2.015 24.226 2.015 16.334C2.015 8.438 8.437 2.015 16.333 2.015C24.229 2.015 30.65 8.439 30.65 16.334C30.65 19.633 28.894 22.902 26.381 24.288C25.468 24.79 24.478 25.039 23.422 25.049C24.056 24.672 24.605 24.162 25.013 23.52C25.093 23.399 25.199 23.292 25.251 23.161C25.579 22.372 25.608 21.477 25.806 20.643C26.049 19.579 21.148 17.5 20.722 18.829C20.568 19.321 20.332 20.877 20.023 21.287C19.748 21.653 19.07 21.479 18.646 21.119C17.529 20.167 16.282 18.768 15.188 17.662L15.19 17.661C15.162 17.632 15.128 17.6 15.098 17.569C15.067 17.54 15.036 17.507 15.005 17.477V17.479C13.899 16.383 12.499 15.139 11.548 14.02C11.188 13.596 11.014 12.918 11.38 12.643C11.79 12.332 13.346 12.1 13.838 11.944C15.164 11.52 13.088 6.616 12.022 6.86C11.19 7.055 10.295 7.087 9.506 7.413C9.372 7.47 9.268 7.573 9.147 7.653C6.348 9.427 5.987 13.735 8.719 16.945C9.76 18.173 10.846 19.361 11.964 20.521L11.958 20.525C11.989 20.556 12.021 20.585 12.053 20.615C12.083 20.646 12.112 20.677 12.141 20.71L12.147 20.704C13.307 21.822 14.682 23.469 16.916 24.959C21.619 28.1 25.228 27.223 27.354 26.057C31.024 24.036 32.666 19.719 32.666 16.338C32.666 7.326 25.339 0 16.333 0Z" fill="white"/>
</svg>
